<?xml version="1.0" encoding="UTF-8"?>
<!DOCTYPE svg PUBLIC "-//W3C//DTD SVG 1.1//EN" "http://www.w3.org/Graphics/SVG/1.1/DTD/svg11.dtd">
<svg xmlns="http://www.w3.org/2000/svg" xmlns:xlink="http://www.w3.org/1999/xlink" version="1.1" width="402px" height="401px" viewBox="-0.5 -0.5 402 401"><defs/><g><g/><g><ellipse cx="200" cy="200" rx="200" ry="200" fill="#99ff99" stroke="rgb(240, 240, 240)" pointer-events="all"/></g><g><ellipse cx="200" cy="200" rx="126.3157894736842" ry="126.3157894736842" fill="#00cc00" stroke="rgb(240, 240, 240)" pointer-events="all"/><path d="M 178.95 61.05 L 200 0 L 221.05 61.05 Z" fill="#00cc00" stroke="rgb(240, 240, 240)" stroke-miterlimit="10" pointer-events="all"/><path d="M 178.95 338.95 L 200 400 L 221.05 338.95 Z" fill="#00cc00" stroke="rgb(240, 240, 240)" stroke-miterlimit="10" pointer-events="all"/><path d="M 61.05 178.95 L 0 200 L 61.05 221.05 Z" fill="#00cc00" stroke="rgb(240, 240, 240)" stroke-miterlimit="10" pointer-events="all"/><path d="M 338.95 178.95 L 400 200 L 338.95 221.05 Z" fill="#00cc00" stroke="rgb(240, 240, 240)" stroke-miterlimit="10" pointer-events="all"/><path d="M 284.21 86.32 L 341.89 58.53 L 313.68 115.79 Z" fill="#00cc00" stroke="rgb(240, 240, 240)" stroke-miterlimit="10" pointer-events="all"/><path d="M 284.21 313.68 L 341.89 341.47 L 313.68 284.21 Z" fill="#00cc00" stroke="rgb(240, 240, 240)" stroke-miterlimit="10" pointer-events="all"/><path d="M 115.79 86.32 L 58.11 58.53 L 86.32 115.79 Z" fill="#00cc00" stroke="rgb(240, 240, 240)" stroke-miterlimit="10" pointer-events="all"/><path d="M 115.79 313.68 L 58.11 341.47 L 86.32 284.21 Z" fill="#00cc00" stroke="rgb(240, 240, 240)" stroke-miterlimit="10" pointer-events="all"/></g><g><path d="M 165 205 L 195 225 L 240 170" fill="none" stroke="rgb(240, 240, 240)" stroke-width="14" stroke-miterlimit="10" pointer-events="stroke"/></g></g></svg>