<?xml version="1.0" encoding="UTF-8"?>
<!DOCTYPE svg PUBLIC "-//W3C//DTD SVG 1.1//EN" "http://www.w3.org/Graphics/SVG/1.1/DTD/svg11.dtd">
<svg xmlns="http://www.w3.org/2000/svg" xmlns:xlink="http://www.w3.org/1999/xlink" version="1.1" width="415px" height="415px" viewBox="-0.5 -0.5 415 415"><defs/><g><g/><g/><g><ellipse cx="207" cy="207" rx="200" ry="200" fill="#e8e8e8" stroke="rgb(240, 240, 240)" pointer-events="all"/></g><g><ellipse cx="67" cy="47" rx="40" ry="40" fill="#e8e8e8" stroke="none" pointer-events="all"/></g><g><ellipse cx="347" cy="47" rx="40" ry="40" fill="#e8e8e8" stroke="none" pointer-events="all"/></g><g style="filter: drop-shadow(rgba(0, 0, 0, 0.25) 2px 3px 2px);"><path d="M 206.5 195 L 207 57" fill="none" stroke="#000000" stroke-width="14" stroke-miterlimit="10" pointer-events="stroke"/></g><g><ellipse cx="207" cy="207" rx="14.5" ry="14.5" fill="#000000" stroke="none" pointer-events="all"/></g><g style="filter: drop-shadow(rgba(0, 0, 0, 0.25) 2px 3px 2px);"><path d="M 219 206.5 L 344.5 206.5" fill="none" stroke="#000000" stroke-width="14" stroke-miterlimit="10" pointer-events="stroke"/></g><g><ellipse cx="357" cy="37" rx="30" ry="30" fill="rgb(24, 20, 29)" stroke="rgb(240, 240, 240)" pointer-events="all"/></g><g><ellipse cx="57" cy="37" rx="30" ry="30" fill="rgb(24, 20, 29)" stroke="rgb(240, 240, 240)" pointer-events="all"/></g><g><ellipse cx="347" cy="47" rx="30" ry="30" fill="#e8e8e8" stroke="none" pointer-events="all"/></g><g><ellipse cx="67" cy="47" rx="30" ry="30" fill="#e8e8e8" stroke="none" pointer-events="all"/></g><g><ellipse cx="87" cy="67" rx="30" ry="30" fill="rgb(24, 20, 29)" stroke="rgb(240, 240, 240)" pointer-events="all"/></g><g><ellipse cx="337" cy="57" rx="30" ry="30" fill="rgb(24, 20, 29)" stroke="rgb(240, 240, 240)" pointer-events="all"/></g><g><ellipse cx="107" cy="87" rx="30" ry="30" fill="#e8e8e8" stroke="none" pointer-events="all"/></g><g><ellipse cx="317" cy="77" rx="30" ry="30" fill="#e8e8e8" stroke="none" pointer-events="all"/></g><g><path d="M 206.5 407 L 206.5 387" fill="none" stroke="#000000" stroke-width="14" stroke-miterlimit="10" pointer-events="stroke"/></g><g><path d="M 7 206.5 L 27 206.5" fill="none" stroke="#000000" stroke-width="14" stroke-miterlimit="10" pointer-events="stroke"/></g><g><path d="M 387 206.5 L 407 206.5" fill="none" stroke="#000000" stroke-width="14" stroke-miterlimit="10" pointer-events="stroke"/></g><g><path d="M 206.5 27 L 206.5 7" fill="none" stroke="#000000" stroke-width="14" stroke-miterlimit="10" pointer-events="stroke"/></g></g></svg>